<?xml version="1.0" encoding="UTF-8"?>
<svg version="1.1" xmlns="http://www.w3.org/2000/svg" width="193" height="168">
<path d="M0 0 C63.69 0 127.38 0 193 0 C193 55.44 193 110.88 193 168 C129.31 168 65.62 168 0 168 C0 112.56 0 57.12 0 0 Z " fill="#FCFCFC" transform="translate(0,0)"/>
<path d="M0 0 C4.14824477 0.76192251 5.57647551 2.19905511 8.0625 5.5625 C8.85088617 10.29281703 7.60258844 12.64653032 5.0625 16.5625 C5.0625 17.5525 5.0625 18.5425 5.0625 19.5625 C7.20908538 21.1690639 9.47755286 22.43395551 11.80078125 23.76953125 C16.62618883 27.59485436 17.3701835 32.61249824 18.1875 38.4375 C19.48839127 44.88746876 21.43182528 48.09247936 26.6328125 52.07421875 C30.03492972 54.15815229 33.23293763 55.44844549 37.0625 56.5625 C37.48554771 61.46985344 37.64677094 63.62412546 35 67.875 C27.93227179 74.34121943 19.6128755 74.71534025 10.515625 74.765625 C9.70438171 74.77132507 8.89313843 74.77702515 8.05731201 74.78289795 C6.34616381 74.79230776 4.63499782 74.79886587 2.92382812 74.80273438 C0.33430594 74.81241845 -2.25441434 74.8434708 -4.84375 74.875 C-25.75675994 75.00793156 -25.75675994 75.00793156 -33.9375 68.5625 C-36.81111783 64.89616001 -37.45154128 62.1888715 -36.9375 57.5625 C-34.9375 55.5625 -34.9375 55.5625 -31.75 54.25 C-26.35713268 51.98702227 -22.11146514 49.58657783 -19.125 44.4375 C-17.99693606 41.36218282 -17.58584987 38.29731155 -17.125 35.0625 C-16.20420895 29.47636764 -14.21210452 26.23092588 -9.9375 22.5625 C-7.0625 20.625 -7.0625 20.625 -4.9375 19.5625 C-5.36781279 16.98062326 -5.73958329 14.90335656 -7.0625 12.625 C-8.35118655 9.58738171 -7.84962956 7.68980136 -6.9375 4.5625 C-4.79314611 1.54452045 -3.65005579 0.69894685 0 0 Z " fill="#1A4B42" transform="translate(97.9375,45.4375)"/>
<path d="M0 0 C0.87438721 -0.01015137 1.74877441 -0.02030273 2.6496582 -0.03076172 C16.08342463 0.14806971 28.31440747 5.52640863 38.04296875 14.71875 C49.58228981 27.82049136 52.39966016 42.21429444 51.6015625 59.21044922 C51.27418653 63.65438314 50.31258112 67.41138243 48.4375 71.4375 C48.02371094 72.34628906 47.60992187 73.25507812 47.18359375 74.19140625 C43.91433483 80.73883214 39.9012967 85.59774099 34.4375 90.4375 C32.4575 89.4475 32.4575 89.4475 30.4375 88.4375 C31.30375 87.48875 32.17 86.54 33.0625 85.5625 C40.52847693 76.82571849 45.73284794 67.01087627 46.4375 55.4375 C46.49035156 54.67695312 46.54320312 53.91640625 46.59765625 53.1328125 C47.08240606 39.93918724 42.59714437 29.07409877 34.125 19.1875 C25.49307459 10.03113905 14.99674327 5.45605836 2.32446289 5.01367188 C-11.83626447 4.92034473 -23.12105665 9.56352216 -33.48828125 19.20703125 C-43.24566769 29.69943738 -45.16992446 41.45304131 -44.77734375 55.2265625 C-44.28899947 66.31027704 -40.2557852 76.21364341 -32.5625 84.4375 C-31.0775 85.4275 -31.0775 85.4275 -29.5625 86.4375 C-29.8925 87.7575 -30.2225 89.0775 -30.5625 90.4375 C-35.38993754 89.70802055 -37.47405037 86.81452037 -40.53125 83.23828125 C-49.31143918 71.13175117 -52.14587516 57.09669871 -50.5625 42.4375 C-48.05477141 28.94262722 -40.48643457 16.78987195 -29.28515625 8.81640625 C-26.76505994 7.21994713 -24.21364891 5.80443711 -21.5625 4.4375 C-20.78777344 4.02113281 -20.01304688 3.60476562 -19.21484375 3.17578125 C-12.91392308 0.32988206 -6.80877731 0.05603932 0 0 Z " fill="#245148" transform="translate(97.5625,6.5625)"/>
<path d="M0 0 C14.84615385 0 14.84615385 0 19 3 C20.72370774 6.44741547 20.50306672 10.23035339 20 14 C18.12379387 16.50160818 16.76108697 17.61945652 14 19 C11.3276379 19.13415472 8.67749512 19.04318541 6 19 C6 22.3 6 25.6 6 29 C4.02 29 2.04 29 0 29 C0 19.43 0 9.86 0 0 Z " fill="#1D4D44" transform="translate(77,129)"/>
<path d="M0 0 C3.75671609 0.90451688 5.57626487 2.7564453 8.22265625 5.53515625 C9.96614576 9.02213527 9.8034835 12.73105688 9.22265625 16.53515625 C7.30892565 20.11139413 5.12978917 22.23277861 1.22265625 23.53515625 C-2.83491527 23.91085732 -5.057635 23.9669815 -8.58984375 21.84765625 C-12.16246504 18.07088517 -12.79768612 15.81672531 -12.71484375 10.59765625 C-11.48320369 3.30468647 -7.55604987 -0.49196318 0 0 Z " fill="#235148" transform="translate(110.77734375,135.46484375)"/>
<path d="M0 0 C1.98 0 3.96 0 6 0 C7.32 3.96 8.64 7.92 10 12 C10.45375 10.7625 10.9075 9.525 11.375 8.25 C12.4384007 5.40754505 13.55192483 2.67336954 15 0 C16.32 0 17.64 0 19 0 C20.32 3.63 21.64 7.26 23 11 C23.33 11 23.66 11 24 11 C24.99 7.37 25.98 3.74 27 0 C28.98 0 30.96 0 33 0 C32.37798054 2.54242904 31.75248241 5.08391875 31.125 7.625 C30.86396484 8.69427734 30.86396484 8.69427734 30.59765625 9.78515625 C29.57145662 13.92796216 28.41209271 17.96726678 27 22 C25.02 22 23.04 22 21 22 C20.51801537 20.75108386 20.03954323 19.50081192 19.5625 18.25 C19.29566406 17.55390625 19.02882812 16.8578125 18.75390625 16.140625 C18 14 18 14 17 10 C15.68 13.96 14.36 17.92 13 22 C10.69 22 8.38 22 6 22 C4.99553896 18.7096777 3.99719244 15.41753178 3 12.125 C2.71382813 11.18785156 2.42765625 10.25070313 2.1328125 9.28515625 C1.86210938 8.38925781 1.59140625 7.49335938 1.3125 6.5703125 C1.06113281 5.74289551 0.80976562 4.91547852 0.55078125 4.06298828 C0 2 0 2 0 0 Z " fill="#26534A" transform="translate(120,136)"/>
<path d="M0 0 C6.6 0 13.2 0 20 0 C18.875 7.875 18.875 7.875 16.27734375 11.40234375 C15.73916016 12.14677734 15.20097656 12.89121094 14.64648438 13.65820312 C14.08251953 14.41037109 13.51855469 15.16253906 12.9375 15.9375 C12.36966797 16.71673828 11.80183594 17.49597656 11.21679688 18.29882812 C9.82304138 20.20792178 8.4131141 22.1051909 7 24 C11.29 24 15.58 24 20 24 C20 25.65 20 27.3 20 29 C13.07 29 6.14 29 -1 29 C0.12476056 21.12667609 0.12476056 21.12667609 2.46875 18.10546875 C3.20158203 17.13770508 3.20158203 17.13770508 3.94921875 16.15039062 C4.46097656 15.50263672 4.97273437 14.85488281 5.5 14.1875 C6.51133718 12.86919524 7.52179629 11.55021628 8.53125 10.23046875 C9.20510742 9.37038208 9.20510742 9.37038208 9.89257812 8.49291992 C11.08348162 6.9777769 11.08348162 6.9777769 12 5 C8.04 5 4.08 5 0 5 C0 3.35 0 1.7 0 0 Z " fill="#214F47" transform="translate(9,129)"/>
<path d="M0 0 C4.05686264 1.55670311 6.42343345 4.42878545 9.125 7.6875 C9.56714844 8.19216797 10.00929688 8.69683594 10.46484375 9.21679688 C14.1368785 13.60437918 15.85409392 17.82897448 16.1171875 23.546875 C15.45816733 29.54183267 15.45816733 29.54183267 12.9375 32.0625 C12.298125 32.371875 11.65875 32.68125 11 33 C11.06960937 32.1646875 11.06960937 32.1646875 11.140625 31.3125 C11.46062797 24.54672297 10.07390961 19.58767921 5.62109375 14.390625 C4.46014099 13.21313445 3.23589398 12.09857243 2 11 C-2.96271271 12.65423757 -5.53000169 16.50447608 -8 21 C-8.83238465 25.02239056 -9.04857631 28.8987719 -9 33 C-12 31 -12 31 -13 28 C-13.93353438 20.79169659 -13.20696366 15.97427296 -8.80078125 10.1484375 C-7.90939453 9.08496094 -7.90939453 9.08496094 -7 8 C-6.35417969 7.22914062 -5.70835938 6.45828125 -5.04296875 5.6640625 C-3.39120346 3.74653457 -1.71439314 1.86148604 0 0 Z " fill="#27534B" transform="translate(97,24)"/>
<path d="M0 0 C3.03978021 0.68164768 4.80055419 2.23591662 6.93359375 4.43359375 C7.93359375 6.43359375 7.93359375 6.43359375 7.93359375 13.43359375 C3.31359375 13.43359375 -1.30640625 13.43359375 -6.06640625 13.43359375 C-3.65806168 17.59779434 -3.65806168 17.59779434 -0.8046875 17.82421875 C0.39607422 17.75460938 0.39607422 17.75460938 1.62109375 17.68359375 C2.83345703 17.62945312 2.83345703 17.62945312 4.0703125 17.57421875 C4.68519531 17.5278125 5.30007812 17.48140625 5.93359375 17.43359375 C6.26359375 18.75359375 6.59359375 20.07359375 6.93359375 21.43359375 C2.9019841 24.12133352 -0.33064503 24.10775308 -5.06640625 23.43359375 C-8.12539589 21.67630183 -9.58026925 20.20699352 -11.44140625 17.24609375 C-12.35791399 13.1218089 -12.18670375 9.50941295 -11.06640625 5.43359375 C-7.99357034 0.87089801 -5.30979542 -0.33123488 0 0 Z " fill="#27544B" transform="translate(165.06640625,135.56640625)"/>
<path d="M0 0 C3.69059994 0.87426509 5.13063077 2.36922768 7.16015625 5.51171875 C7.55451003 8.318895 7.40233271 10.65403648 7.16015625 13.51171875 C2.87015625 13.51171875 -1.41984375 13.51171875 -5.83984375 13.51171875 C-5.17984375 14.83171875 -4.51984375 16.15171875 -3.83984375 17.51171875 C-0.53984375 17.51171875 2.76015625 17.51171875 6.16015625 17.51171875 C6.49015625 18.83171875 6.82015625 20.15171875 7.16015625 21.51171875 C2.87051471 23.93376125 -0.99566523 24.38384358 -5.83984375 23.51171875 C-9.16707716 20.87765896 -11.57154164 18.64280412 -12.11328125 14.33984375 C-12.28146512 10.07056101 -12.41341833 6.49369186 -9.90234375 2.88671875 C-6.32804129 0.11481072 -4.42465183 -0.33240289 0 0 Z " fill="#255249" transform="translate(42.83984375,135.48828125)"/>
<path d="M0 0 C3.83625 -0.1546875 3.83625 -0.1546875 7.75 -0.3125 C8.54889648 -0.35802002 9.34779297 -0.40354004 10.17089844 -0.45043945 C13.76372269 -0.52057645 15.65726579 -0.26990319 18.5 1.96875 C20.51969647 6.05021995 20.44533119 9.33115167 20.25 13.8125 C20.23195313 14.60076172 20.21390625 15.38902344 20.1953125 16.20117188 C20.14844048 18.13464261 20.0767041 20.06748285 20 22 C18.02 22 16.04 22 14 22 C13.67 17.05 13.34 12.1 13 7 C11.35 6.67 9.7 6.34 8 6 C6.5192152 8.9615696 6.64685963 11.83506295 6.4375 15.125 C6.35371094 16.40632813 6.26992188 17.68765625 6.18359375 19.0078125 C6.09271484 20.48894531 6.09271484 20.48894531 6 22 C4.02 22 2.04 22 0 22 C0 14.74 0 7.48 0 0 Z " fill="#225047" transform="translate(53,136)"/>
<path d="M0 0 C-0.22589616 5.53445591 -1.51885218 8.50410638 -5.32421875 12.5546875 C-9.41514829 16.08299503 -13.80524184 16.24736944 -19 16 C-18.52126863 10.97332059 -17.27675909 7.86489534 -14 4 C-9.49592624 0.88844371 -5.54410198 -0.5544102 0 0 Z " fill="#215047" transform="translate(131,51)"/>
<path d="M0 0 C4.90307004 -0.35021929 7.81625686 0.41854146 12 3 C15.04247182 5.69673638 17.62397297 8.12210564 19 12 C19 13.32 19 14.64 19 16 C12.57721458 16.38536713 8.64430423 15.27703975 3.75 11.0625 C0.6098904 7.36165654 -0.27064761 4.87165691 0 0 Z " fill="#235149" transform="translate(65,51)"/>
<path d="M0 0 C4.33333333 0 8.66666667 0 13 0 C13 1.65 13 3.3 13 5 C11.7934375 5.4640625 11.7934375 5.4640625 10.5625 5.9375 C8.10919595 6.76335345 8.10919595 6.76335345 7 8 C6.76346477 10.52596259 6.57826308 13.03107207 6.4375 15.5625 C6.39431641 16.27341797 6.35113281 16.98433594 6.30664062 17.71679688 C6.20028223 19.47761912 6.09961154 21.2387832 6 23 C4.02 23 2.04 23 0 23 C0 15.41 0 7.82 0 0 Z " fill="#2D584F" transform="translate(176,136)"/>
<path d="M0 0 C3 -0.375 3 -0.375 6 0 C8.45811625 3.68717438 8.31118164 5.64345704 8 10 C7.01 11.485 7.01 11.485 6 13 C3.20163168 13.4305182 1.64473241 13.37794659 -0.8125 11.9375 C-2.65150018 8.93702602 -2.30671285 6.43518387 -2 3 C-1.34 2.01 -0.68 1.02 0 0 Z " fill="#F3F4F4" transform="translate(106,141)"/>
<path d="M0 0 C0.66 0 1.32 0 2 0 C2.7701658 9.77254826 2.7701658 9.77254826 0 14.1875 C-4.02548968 16.61956668 -6.36082895 16.39315009 -11 16 C-10.2575 15.443125 -9.515 14.88625 -8.75 14.3125 C-3.6193695 9.99810617 -1.5045093 6.39416454 0 0 Z " fill="#DFE4E2" transform="translate(87,86)"/>
<path d="M0 0 C2.875 -0.125 2.875 -0.125 6 0 C6.66 0.66 7.32 1.32 8 2 C7.625 5.625 7.625 5.625 7 9 C4.69 9.33 2.38 9.66 0 10 C0 6.7 0 3.4 0 0 Z " fill="#EBEEED" transform="translate(83,134)"/>
<path d="M0 0 C2 2 2 2 3.75 5.375 C5.86500749 9.22046816 8.26304679 10.79180037 12 13 C12 13.33 12 13.66 12 14 C4.8125 14.47916667 4.8125 14.47916667 1.5625 12.5625 C-0.66117994 8.91566489 -1.04302935 5.24269421 -1 1 C-0.67 0.67 -0.34 0.34 0 0 Z " fill="#E6EAE8" transform="translate(108,88)"/>
<path d="M0 0 C0.66 0.33 1.32 0.66 2 1 C1 4 1 4 -1 5 C-3.6723621 5.13415472 -6.32250488 5.04318541 -9 5 C-9 3.68 -9 2.36 -9 1 C-6.01405576 -0.49297212 -3.29146376 -0.11755228 0 0 Z " fill="#26534A" transform="translate(130,72)"/>
<path d="M0 0 C0.99 0.66 1.98 1.32 3 2 C3 2.66 3 3.32 3 4 C-0.01868434 5.50934217 -2.67297229 5.17510672 -6 5 C-6.99 4.34 -7.98 3.68 -9 3 C-9 2.34 -9 1.68 -9 1 C-5.98131566 -0.50934217 -3.32702771 -0.17510672 0 0 Z " fill="#26534B" transform="translate(73,72)"/>
<path d="M0 0 C1.67542976 0.28604898 3.34385343 0.61781233 5 1 C5.33 2.32 5.66 3.64 6 5 C3.36 5 0.72 5 -2 5 C-1.125 1.125 -1.125 1.125 0 0 Z " fill="#CBD2D0" transform="translate(39,140)"/>
<path d="M0 0 C1.65 0.33 3.3 0.66 5 1 C5.33 2.32 5.66 3.64 6 5 C3.36 5 0.72 5 -2 5 C-1.34 3.35 -0.68 1.7 0 0 Z " fill="#CED5D3" transform="translate(161,140)"/>
<path d="M0 0 C1.9814066 2.9721099 2.7434556 4.49389321 3 8 C1.5625 10.3125 1.5625 10.3125 0 12 C-0.19573608 10.56359829 -0.38127816 9.12580496 -0.5625 7.6875 C-0.66691406 6.88699219 -0.77132812 6.08648437 -0.87890625 5.26171875 C-1 3 -1 3 0 0 Z " fill="#E8EBEA" transform="translate(120,138)"/>
</svg>
